# xmcd
#
# Track frame offsets: 
#        150
#        14791
#        28986
#        41342
#        55370
#        69621
#        83426
#        94723
#        108417
#        122278
#        135582
#        150223
#        163972
#        176273
#        190413
#        204051
#        218246
#        231494
#        243795
#        256653
#        272019
#        286994
#        301412
#        314604
#        328911
#
# Disc length: 4554 seconds
#
# Revision: 0
# Processed by: cddbd v1.5.2PL0 Copyright (c) Steve Scherf et al.
# Submitted via: ExactAudioCopyFreeDBPlugin 1.0
#
DISCID=5a11c819
DTITLE=Blind Willie McTell - The Rough Guide to Blind Willie McTell: R
DTITLE=eborn and Remastered
DYEAR=2018
DGENRE=Blues
TTITLE0=Southern Can Is Mine
TTITLE1=Broke Down Engine Blues
TTITLE2=God Don't Like It
TTITLE3=Stomp Down Rider
TTITLE4=Love Changing Blues
TTITLE5=Georgia Rag
TTITLE6=Statesboro Blues
TTITLE7=Come On Around To My House Mama
TTITLE8=Searching The Desert For The Blues
TTITLE9=Mama, 'Tain't Long Fo' Day
TTITLE10=Travelin' Blues
TTITLE11=It's Your Time To Worry
TTITLE12=Hillbilly Willie's Blues
TTITLE13=Mama, Let Me Scoop For You
TTITLE14=Scarey Day Blues
TTITLE15=Atlanta Strut
TTITLE16=Lord, Send Me An Angel
TTITLE17=Three Women Blues
TTITLE18=It's A Good Little Thing
TTITLE19=Lay Some Flowers On My Grave
TTITLE20=Razor Ball
TTITLE21=Drive Away Blues
TTITLE22=Warm It Up To Me
TTITLE23=Talking To Myself
TTITLE24=Dark Night Blues
EXTD=
EXTT0=
EXTT1=
EXTT2=
EXTT3=
EXTT4=
EXTT5=
EXTT6=
EXTT7=
EXTT8=
EXTT9=
EXTT10=
EXTT11=
EXTT12=
EXTT13=
EXTT14=
EXTT15=
EXTT16=
EXTT17=
EXTT18=
EXTT19=
EXTT20=
EXTT21=
EXTT22=
EXTT23=
EXTT24=
PLAYORDER=
